<?xml version="1.0" standalone="no"?>
<!DOCTYPE svg PUBLIC "-//W3C//DTD SVG 20010904//EN"
 "http://www.w3.org/TR/2001/REC-SVG-20010904/DTD/svg10.dtd">
<svg version="1.0" xmlns="http://www.w3.org/2000/svg"
 width="256.000000pt" height="332.000000pt" viewBox="0 0 256.000000 332.000000"
 preserveAspectRatio="xMidYMid meet">

<g transform="translate(0.000000,332.000000) scale(0.100000,-0.100000)"
fill="#000000" stroke="none">
<path d="M693 3310 c-22 -5 -59 -18 -81 -29 -48 -25 -62 -58 -62 -152 0 -41
-5 -71 -12 -75 -8 -5 -6 -10 8 -15 16 -6 16 -8 2 -8 -39 -2 -27 -54 17 -71 35
-13 85 -124 85 -188 0 -59 -13 -76 -71 -93 -38 -12 -39 -13 -24 -36 9 -12 12
-23 8 -23 -11 0 -74 93 -67 99 3 3 9 -1 14 -9 8 -13 10 -13 10 1 0 25 -34 49
-70 49 -18 0 -30 -3 -27 -7 4 -3 -3 -13 -14 -21 -15 -11 -18 -17 -9 -22 9 -6
7 -11 -9 -19 -25 -14 -28 -33 -3 -24 15 6 14 3 -3 -17 l-20 -23 23 8 c23 7 22
5 -7 -36 -17 -23 -31 -47 -31 -52 0 -6 -11 -25 -25 -43 -26 -34 -135 -246
-135 -263 0 -5 29 -36 65 -69 36 -33 65 -68 65 -78 1 -32 37 -102 59 -114 12
-6 21 -21 21 -34 0 -22 4 -23 101 -30 55 -3 109 -11 120 -17 22 -12 389 -11
389 1 0 9 -51 20 -99 20 -20 0 -42 4 -49 9 -15 9 101 21 204 21 l64 0 -10 26
c-6 14 -10 43 -10 65 0 35 2 38 18 28 10 -6 29 -34 42 -63 l25 -51 124 -3 c94
-2 134 1 165 13 23 9 49 15 57 13 22 -5 23 45 2 64 -10 9 -41 22 -68 29 -139
33 -150 38 -168 69 -18 30 -19 30 -103 30 l-84 0 0 193 0 192 -43 26 c-23 14
-77 43 -120 64 -81 39 -107 68 -107 119 0 14 8 31 19 38 19 13 31 66 33 144 2
39 4 43 40 53 37 12 42 19 50 76 2 16 -4 21 -29 23 -34 3 -36 8 -49 97 -3 28
-14 58 -22 68 -36 41 -123 62 -199 47z m-18 -160 c-3 -5 -1 -10 4 -10 6 0 11
-9 11 -21 0 -12 4 -18 11 -13 7 4 10 1 7 -7 -7 -20 -58 -25 -58 -5 0 19 18 66
25 66 4 0 3 -4 0 -10z m305 -93 c0 -27 -17 -47 -41 -47 -18 0 -30 20 -28 48 1
10 4 7 9 -8 7 -22 8 -22 9 -4 1 26 9 34 33 34 12 0 18 -7 18 -23z m-220 -7 c0
-5 -5 -10 -11 -10 -5 0 -7 5 -4 10 3 6 8 10 11 10 2 0 4 -4 4 -10z m-82 -47
c-2 -11 -14 -18 -30 -20 -25 -2 -26 -1 -10 17 22 24 44 25 40 3z m-108 -25 c0
-4 -4 -8 -9 -8 -6 0 -12 4 -15 8 -3 5 1 9 9 9 8 0 15 -4 15 -9z m-220 -686
c-7 -37 -16 -89 -20 -117 l-8 -50 2 50 c4 79 31 243 34 212 2 -15 -2 -58 -8
-95z"/>
<path d="M1656 2735 c-4 -10 2 -19 17 -25 12 -5 16 -9 10 -9 -8 -1 -13 -16
-13 -41 l0 -39 38 3 37 4 2 61 2 61 -44 0 c-29 0 -45 -5 -49 -15z"/>
<path d="M1675 2531 c-3 -2 -5 -21 -5 -42 0 -21 -4 -41 -10 -44 -5 -3 -10 -17
-10 -31 l0 -24 -142 -2 c-141 -1 -142 -1 -53 -9 50 -4 136 -7 191 -8 l101 -1
2 83 2 83 -36 0 c-20 0 -38 -2 -40 -5z"/>
<path d="M1983 2373 c26 -2 67 -2 90 0 23 2 2 3 -48 3 -49 0 -68 -1 -42 -3z"/>
<path d="M1600 2345 c0 -9 11 -21 25 -27 21 -9 28 -8 45 7 30 27 25 35 -25 35
-34 0 -45 -4 -45 -15z"/>
<path d="M1835 1965 c-5 -2 -28 -6 -49 -7 -22 -2 -41 -9 -44 -16 -3 -9 15 -12
62 -12 64 0 92 14 65 31 -15 9 -18 10 -34 4z"/>
<path d="M1868 1911 c-119 -4 -220 -9 -224 -14 -10 -10 479 4 491 14 5 5 -3 8
-20 7 -17 -1 -128 -4 -247 -7z"/>
<path d="M2196 1836 c21 -15 30 -14 19 3 -3 6 -14 11 -23 11 -13 0 -13 -2 4
-14z"/>
<path d="M405 1811 c-3 -2 -5 -33 -5 -68 0 -59 3 -68 40 -118 33 -44 40 -62
40 -99 0 -34 -4 -46 -17 -49 -10 -3 15 -5 55 -6 39 0 72 3 72 7 0 5 -11 19
-26 32 -29 28 -28 37 13 143 29 73 72 112 122 110 15 -1 20 1 13 4 -6 2 -10 9
-6 14 3 5 4 9 2 10 -33 5 -300 24 -303 20z m99 -277 c3 -8 2 -12 -4 -9 -6 3
-10 10 -10 16 0 14 7 11 14 -7z"/>
<path d="M749 1811 c-13 -5 -13 -10 -2 -31 7 -14 13 -19 13 -12 0 18 31 15 46
-5 7 -10 14 -30 14 -44 0 -29 51 -100 149 -205 47 -51 62 -73 58 -90 -2 -13 1
-22 7 -21 7 1 11 -17 11 -48 0 -27 4 -56 8 -62 5 -8 4 -13 -2 -13 -6 0 -11
-15 -10 -32 0 -32 1 -32 10 -9 19 47 27 5 34 -169 4 -96 10 -227 14 -290 12
-186 10 -191 -52 -141 -26 20 -53 31 -93 36 -32 4 -63 9 -71 12 -7 3 -13 -1
-13 -10 0 -16 18 -22 101 -32 31 -4 60 -10 65 -13 30 -21 38 -102 10 -102 -6
0 -48 25 -94 55 -77 52 -82 54 -82 32 0 -19 16 -35 71 -71 69 -46 71 -49 66
-81 -3 -21 0 -40 9 -52 13 -17 14 -17 31 4 14 18 38 26 113 38 52 8 107 22
121 30 20 11 38 13 71 7 41 -8 88 2 88 18 0 11 -51 31 -62 24 -7 -4 -8 -2 -4
4 4 7 17 12 30 12 12 0 23 6 23 13 1 6 12 71 27 142 53 268 67 374 73 530 7
190 1 210 -92 315 -114 130 -168 179 -211 196 -38 14 -44 21 -44 45 l0 29
-190 0 c-160 0 -192 -2 -196 -15 -4 -8 -14 -15 -23 -15 -13 0 -13 2 -2 9 17
11 1 21 -20 12z m673 -433 c-7 -7 -12 -8 -12 -2 0 6 3 14 7 17 3 4 9 5 12 2 2
-3 -1 -11 -7 -17z m-67 -212 c-37 -64 -68 -116 -70 -116 -7 0 24 68 61 131 55
95 65 111 71 106 2 -3 -25 -57 -62 -121z m-125 49 c10 -12 9 -31 -4 -95 -9
-44 -17 -99 -17 -123 -1 -23 -4 -55 -8 -72 -6 -26 -8 -21 -14 32 -5 38 -3 78
4 107 6 26 9 60 5 76 -6 33 2 90 14 90 4 0 13 -7 20 -15z m187 -26 l-22 -18
23 6 c26 6 26 6 6 -42 -9 -23 -11 -34 -3 -30 16 11 2 -71 -21 -116 -10 -20
-17 -45 -16 -55 3 -18 -41 -159 -66 -214 -21 -44 -20 -46 6 -15 29 34 99 173
141 283 16 39 30 70 33 68 6 -7 -26 -200 -55 -331 -13 -60 -26 -118 -28 -129
-3 -10 -7 -21 -10 -24 -2 -3 -46 2 -97 10 -51 9 -114 14 -140 11 -55 -4 -56
-3 -29 77 67 200 227 518 268 534 8 4 11 11 7 18 -6 9 -3 9 9 -1 15 -12 15
-15 -6 -32z m-145 -171 c-7 -7 -12 -8 -12 -2 0 14 12 26 19 19 2 -3 -1 -11 -7
-17z m19 -464 c7 -9 22 -14 35 -11 17 3 21 0 16 -11 -4 -11 -1 -13 8 -7 8 5
11 4 7 -2 -14 -22 -107 11 -107 37 0 16 26 12 41 -6z m-261 -44 c0 -5 -4 -10
-10 -10 -5 0 -10 5 -10 10 0 6 5 10 10 10 6 0 10 -4 10 -10z"/>
<path d="M630 1679 c0 -5 5 -7 10 -4 6 3 10 8 10 11 0 2 -4 4 -10 4 -5 0 -10
-5 -10 -11z"/>
<path d="M630 1637 c0 -7 -13 -26 -30 -42 -36 -35 -37 -48 -6 -69 14 -8 27
-26 29 -38 4 -20 4 -20 6 4 0 15 -4 30 -10 34 -6 3 -7 9 -2 13 25 18 42 94 23
106 -5 3 -10 0 -10 -8z"/>
<path d="M987 1366 c-4 -10 -5 -21 -2 -24 9 -9 17 6 13 25 -3 17 -4 17 -11 -1z"/>
<path d="M938 1321 c-14 -15 -31 -44 -38 -62 -8 -19 -21 -39 -30 -46 -9 -7
-10 -12 -3 -13 6 0 9 -8 7 -17 -3 -10 2 -27 10 -38 14 -18 15 -18 16 -2 0 9 4
25 9 35 10 18 59 172 55 172 -1 0 -13 -13 -26 -29z"/>
<path d="M680 1240 c0 -5 9 -10 19 -10 11 0 23 -5 26 -10 4 -6 10 -8 15 -5 5
3 12 -14 15 -37 9 -63 2 -482 -9 -490 -5 -3 -14 -4 -20 -2 -16 6 -9 256 7 266
8 5 6 8 -5 8 -16 0 -18 -13 -18 -128 0 -115 -2 -129 -20 -145 -11 -9 -30 -17
-43 -17 -15 0 -18 -3 -9 -8 8 -6 -26 -28 -103 -65 -64 -31 -121 -57 -127 -57
-6 0 -8 -7 -4 -15 3 -9 0 -15 -10 -15 -12 0 -14 -10 -12 -47 3 -48 3 -48 38
-48 33 0 35 2 34 35 0 42 -6 62 -19 73 -6 5 -2 6 8 3 11 -3 65 18 138 54 66
33 139 63 164 66 43 7 44 6 47 -26 2 -19 9 -35 16 -38 11 -3 13 9 9 59 -25
321 -49 586 -52 597 -5 14 -85 17 -85 2z m115 -570 c3 -5 -3 -10 -15 -10 -12
0 -18 5 -15 10 3 6 10 10 15 10 5 0 12 -4 15 -10z"/>
<path d="M821 1234 c0 -11 3 -14 6 -6 3 7 2 16 -1 19 -3 4 -6 -2 -5 -13z"/>
<path d="M731 984 c0 -11 3 -14 6 -6 3 7 2 16 -1 19 -3 4 -6 -2 -5 -13z"/>
<path d="M568 653 c6 -2 18 -2 25 0 6 3 1 5 -13 5 -14 0 -19 -2 -12 -5z"/>
<path d="M508 643 c6 -2 18 -2 25 0 6 3 1 5 -13 5 -14 0 -19 -2 -12 -5z"/>
<path d="M448 633 c7 -3 16 -2 19 1 4 3 -2 6 -13 5 -11 0 -14 -3 -6 -6z"/>
<path d="M378 623 c7 -3 16 -2 19 1 4 3 -2 6 -13 5 -11 0 -14 -3 -6 -6z"/>
<path d="M286 581 c2 -60 2 -61 37 -58 36 3 45 25 28 70 -8 22 -16 27 -38 25
-25 -2 -28 -5 -27 -37z"/>
<path d="M1555 480 c-18 -8 -17 -9 8 -9 16 -1 26 3 22 9 -3 6 -7 10 -8 9 -1 0
-11 -4 -22 -9z"/>
<path d="M170 300 c0 -5 11 -10 25 -10 14 0 25 5 25 10 0 6 -11 10 -25 10 -14
0 -25 -4 -25 -10z"/>
<path d="M2350 248 c0 -4 12 -8 26 -8 14 0 23 4 19 9 -6 11 -45 10 -45 -1z"/>
<path d="M870 20 c0 -5 11 -10 25 -10 14 0 25 5 25 10 0 6 -11 10 -25 10 -14
0 -25 -4 -25 -10z"/>
</g>
</svg>
